# xmcd
#
# Track frame offsets:
#	150
#	31074
#	44538
#	60662
#	77772
#	101334
#	120420
#	142122
#	158449
#	174630
#	195767
#	213474
#	232364
#	251663
#	270215
#	287484
#
# Disc length: 4162 seconds
#
# Revision: 0
# Processed by: cddbd v1.5.2PL0 Copyright (c) Steve Scherf et al.
# Submitted via: audiograbber 1.83.01
#
DISCID=d4104010
DTITLE=Flight Department - 25 ans
DYEAR=2002
DGENRE=
TTITLE0=Flight Department - And We Want
TTITLE1=Flight Department - Bye Bye Love
TTITLE2=Flight Department - Like a Shadow
TTITLE3=Flight Department - Status Quo
TTITLE4=Flight Department - Yes All Night
TTITLE5=Flight Department - Just a Need to Cry
TTITLE6=Flight Department - Saturday
TTITLE7=Flight Department - True Fine Mama
TTITLE8=Flight Department - Come On Come On
TTITLE9=Flight Department - It Was At Mery
TTITLE10=Flight Department - My Ghost Love
TTITLE11=Flight Department - Frankness, Friendship, Freedom and Love
TTITLE12=Flight Department - Never Back Home
TTITLE13=Flight Department - No Illusion
TTITLE14=Flight Department - Fly
TTITLE15=Flight Department - I Fell You Want Him
EXTD=
EXTT0=
EXTT1=
EXTT2=
EXTT3=
EXTT4=
EXTT5=
EXTT6=
EXTT7=
EXTT8=
EXTT9=
EXTT10=
EXTT11=
EXTT12=
EXTT13=
EXTT14=
EXTT15=
PLAYORDER=
